<?xml version="1.0" encoding="utf-8"?>
<!DOCTYPE svg PUBLIC "-//W3C//DTD SVG 20010904//EN" "http://www.w3.org/TR/2001/REC-SVG-20010904/DTD/svg10.dtd">
<svg version="1.0" xmlns="http://www.w3.org/2000/svg" width="514pt" height="514pt" viewBox="0 0 514 514" preserveAspectRatio="xMidYMid meet">
<g fill="#000000FE">
<path d="M 228.22 477.98 C 206.95 472.41 189.86 456.18 183.38 435.40 L 180.74 426.93 L 182.94 420.23 C 189.02 401.71 204.41 387.38 223.46 382.52 C 231.56 380.45 232.90 380.56 242.58 383.97 C 252.33 387.41 266.52 389.51 270.29 388.08 C 275.86 385.96 277.63 379.53 273.71 375.62 C 271.92 373.82 269.82 373.18 264.08 372.64 C 254.97 371.80 243.48 368.02 236.67 363.63 C 224.46 355.75 214.36 340.98 211.81 327.28 C 210.80 321.84 210.91 320.64 212.79 315.85 C 216.31 306.94 217.26 301.91 217.21 292.60 C 217.15 281.64 215.53 278.67 209.35 278.20 C 202.92 277.72 201.52 280.12 201.38 291.85 C 201.30 299.14 200.74 302.84 199.12 307.00 C 194.59 318.60 185.64 326.98 174.00 330.55 C 167.82 332.44 164.00 335.89 164.00 339.60 C 164.00 342.99 168.21 347.00 171.76 347.00 C 176.07 347.00 186.09 343.32 192.10 339.53 L 197.46 336.15 L 199.55 341.94 C 202.19 349.23 205.90 355.57 211.64 362.62 C 216.04 368.02 216.09 368.16 213.83 368.76 C 208.88 370.05 196.21 377.15 190.37 381.91 C 182.73 388.13 175.04 398.27 170.77 407.75 L 167.50 415.00 L 158.46 415.00 C 147.87 415.00 140.18 413.23 130.50 408.56 C 103.81 395.70 89.25 366.00 95.42 337.00 C 96.51 331.83 99.70 323.51 102.75 317.85 C 102.94 317.49 100.12 316.20 96.47 314.99 C 88.16 312.22 76.27 304.34 70.73 297.93 C 59.87 285.33 55.04 273.33 54.26 256.99 C 53.66 244.25 55.16 237.27 61.16 225.03 C 64.38 218.47 67.02 214.87 72.92 209.03 C 77.11 204.89 83.00 200.20 86.02 198.62 L 91.52 195.74 L 96.22 198.92 C 107.19 206.32 121.72 211.00 133.74 211.00 C 140.24 211.00 141.04 210.77 142.93 208.37 C 145.53 205.06 145.56 201.98 143.03 198.77 C 141.37 196.66 139.92 196.16 133.78 195.59 C 119.89 194.29 108.70 189.75 99.49 181.64 L 94.66 177.39 L 94.24 168.95 C 93.33 150.56 99.89 133.92 113.40 120.39 C 125.08 108.70 137.68 102.90 154.62 101.45 C 160.90 100.91 174.45 102.58 179.13 104.46 C 180.58 105.05 180.70 104.16 180.25 96.20 C 179.25 78.68 185.59 61.70 198.02 48.62 C 217.41 28.20 246.77 22.79 272.50 34.89 C 289.34 42.81 302.40 58.47 307.68 77.08 C 309.37 83.03 309.50 88.98 309.50 159.00 L 309.50 234.50 L 302.46 234.31 C 294.14 234.09 286.54 231.47 279.76 226.48 C 274.49 222.60 268.62 215.19 266.97 210.33 C 265.99 207.42 266.21 206.74 269.60 202.33 C 274.96 195.35 278.96 186.19 280.48 177.42 C 282.43 166.22 280.45 162.00 273.24 162.00 C 268.88 162.00 266.46 165.42 265.19 173.39 C 261.92 193.94 244.43 209.00 223.85 209.00 C 217.68 209.00 213.67 212.15 213.67 217.00 C 213.67 221.84 217.68 225.01 223.81 224.98 C 230.37 224.96 241.19 222.52 247.48 219.64 L 252.79 217.21 L 254.64 221.35 C 255.66 223.63 259.90 228.97 264.06 233.21 C 269.83 239.10 273.39 241.76 279.10 244.47 C 287.56 248.49 299.42 251.31 305.79 250.81 L 310.08 250.48 L 309.74 338.49 C 309.37 436.35 309.82 429.88 302.37 444.95 C 296.97 455.90 285.33 467.34 274.00 472.85 C 269.32 475.12 262.82 477.66 259.54 478.49 C 251.35 480.56 237.20 480.33 228.22 477.98Z"/></g>
<g fill="#000000FE">
<path d="M 325.00 209.56 L 325.00 202.00 L 368.85 202.00 L 412.70 202.00 L 416.10 199.73 C 420.97 196.48 423.00 191.80 423.00 183.83 L 423.00 177.16 L 419.53 176.01 C 414.60 174.38 406.63 166.84 403.94 161.26 C 400.77 154.69 400.64 143.43 403.66 136.85 C 408.57 126.16 418.70 119.65 430.50 119.60 C 452.62 119.50 466.79 142.10 456.94 161.80 C 453.47 168.75 449.76 172.28 442.37 175.68 L 437.24 178.04 L 436.80 187.27 C 436.48 194.18 435.82 197.56 434.19 200.69 C 431.37 206.13 426.03 211.26 420.17 214.18 C 415.52 216.49 415.30 216.50 370.25 216.81 L 325.00 217.11 L 325.00 209.56Z"/></g>
<g fill="#000000FE">
<path d="M 424.73 434.96 C 415.55 432.68 407.90 426.52 403.80 418.13 C 400.46 411.26 400.66 400.34 404.26 393.38 C 407.30 387.48 414.61 380.61 419.58 378.97 L 423.00 377.84 L 423.00 371.39 C 423.00 364.01 421.43 359.58 417.55 356.00 L 414.84 353.50 L 370.17 353.00 L 325.50 352.50 L 325.21 345.20 L 324.91 337.90 L 370.21 338.20 L 415.50 338.50 L 421.20 341.30 C 431.60 346.40 436.07 353.98 436.92 367.92 L 437.50 377.34 L 441.61 378.71 C 451.70 382.06 460.00 394.15 460.00 405.48 C 460.00 413.57 457.75 419.86 452.89 425.39 C 446.05 433.16 434.00 437.26 424.73 434.96Z"/></g>
<g fill="#000000FE">
<path d="M 420.20 305.17 C 412.72 302.50 407.98 298.29 404.50 291.23 L 401.50 285.15 L 363.50 284.83 L 325.50 284.50 L 325.21 277.25 L 324.91 270.00 L 363.30 270.00 L 401.68 270.00 L 402.82 266.20 C 404.40 260.95 409.78 254.99 416.14 251.47 C 420.90 248.83 422.45 248.50 430.00 248.50 C 437.65 248.50 439.05 248.81 444.00 251.60 C 450.12 255.05 456.12 262.12 457.87 267.96 C 458.49 270.04 459.00 274.60 458.99 278.12 C 458.96 297.74 438.79 311.80 420.20 305.17Z"/></g>
<g fill="#000000FE">
<path d="M 325.00 139.00 L 325.00 132.00 L 339.75 132.00 C 351.80 132.00 355.13 131.68 357.97 130.25 C 362.92 127.75 365.23 123.13 365.77 114.61 L 366.23 107.45 L 361.01 105.01 C 353.90 101.68 347.44 94.32 345.37 87.21 C 341.24 73.01 347.54 59.00 361.28 51.80 C 367.70 48.44 379.68 48.65 386.62 52.25 C 400.04 59.20 406.16 74.34 401.32 88.57 C 399.12 95.05 390.04 104.31 384.17 106.07 L 380.00 107.32 L 380.00 114.54 C 380.00 128.18 374.42 138.12 363.79 143.42 C 358.84 145.89 357.87 146.00 341.80 146.00 L 325.00 146.00 L 325.00 139.00Z"/></g>
<g fill="#000000FE">
<path d="M 354.73 484.96 C 332.53 479.45 324.20 453.06 339.37 436.27 C 341.35 434.08 345.27 431.21 348.07 429.89 L 353.17 427.50 L 352.83 419.50 C 352.29 406.40 348.43 403.00 334.10 403.00 L 325.00 403.00 L 325.00 395.36 L 325.00 387.71 L 335.34 388.24 C 346.79 388.83 352.22 390.62 358.08 395.76 C 363.87 400.85 366.38 407.09 366.98 417.92 L 367.50 427.34 L 371.68 428.73 C 373.97 429.49 377.88 431.91 380.37 434.09 C 399.66 451.07 389.24 482.74 363.50 485.38 C 360.75 485.66 356.81 485.47 354.73 484.96Z"/></g>
</svg>
