<?xml version="1.0" encoding="utf-8"?>
<!DOCTYPE svg PUBLIC "-//W3C//DTD SVG 20010904//EN" "http://www.w3.org/TR/2001/REC-SVG-20010904/DTD/svg10.dtd">
<svg version="1.0" xmlns="http://www.w3.org/2000/svg" width="514pt" height="514pt" viewBox="0 0 514 514" preserveAspectRatio="xMidYMid meet">
<g fill="#000000FE">
<path d="M 1.23 179.75 C 1.48 66.18 1.62 57.19 3.24 53.14 C 5.60 47.24 10.01 41.44 14.81 37.91 C 23.46 31.55 4.95 32.00 257.00 32.00 C 509.05 32.00 490.54 31.55 499.19 37.91 C 503.99 41.44 508.40 47.24 510.76 53.14 C 512.38 57.19 512.52 66.18 512.77 179.75 L 513.05 302.00 L 257.00 302.00 L 0.95 302.00 L 1.23 179.75ZM 183.96 236.52 C 189.99 233.40 192.92 226.73 191.53 219.29 C 190.95 216.22 188.04 212.75 174.70 199.26 L 158.58 182.95 L 173.69 167.72 C 182.00 159.35 189.57 150.96 190.51 149.08 C 192.63 144.85 192.05 137.88 189.26 134.14 C 184.52 127.78 175.22 125.84 168.76 129.85 C 166.97 130.96 155.99 141.46 144.36 153.19 C 113.58 184.22 113.62 181.79 143.36 211.87 C 167.69 236.48 169.60 238.00 176.20 238.00 C 178.89 238.00 182.39 237.33 183.96 236.52ZM 245.10 235.75 C 247.99 233.84 251.76 227.06 270.26 190.50 C 291.99 147.54 292.01 147.49 291.69 141.70 C 291.40 136.61 290.94 135.47 287.85 132.38 C 282.02 126.55 272.89 126.10 267.14 131.35 C 265.85 132.53 255.11 152.83 243.29 176.46 C 222.08 218.83 221.79 219.49 222.23 224.73 C 222.57 228.87 223.31 230.73 225.58 233.13 C 229.24 236.99 231.32 237.86 237.10 237.94 C 240.28 237.98 242.75 237.30 245.10 235.75ZM 346.60 235.12 C 348.74 233.54 359.56 223.08 370.64 211.87 C 400.34 181.83 400.36 184.12 370.16 153.67 C 358.80 142.22 348.23 131.93 346.67 130.80 C 334.88 122.26 319.75 132.21 322.47 146.71 C 323.05 149.78 325.96 153.25 339.27 166.71 L 355.37 183.00 L 339.27 199.29 C 322.16 216.60 320.88 218.64 322.40 226.23 C 324.55 237.00 337.57 241.79 346.60 235.12Z"/></g>
<g fill="#000000FE">
<path d="M 24.32 390.56 C 15.21 387.71 8.59 381.73 4.34 372.50 C 1.74 366.86 1.55 365.49 1.17 349.75 L 0.77 333.00 L 257.00 333.00 L 513.23 333.00 L 512.82 349.75 C 512.43 365.56 512.25 366.85 509.57 372.75 C 506.32 379.90 500.20 386.09 493.18 389.34 L 488.50 391.50 L 258.50 391.69 C 71.26 391.84 27.72 391.63 24.32 390.56Z"/></g>
<g fill="#000000FE">
<path d="M 128.83 480.29 C 125.32 478.11 122.00 472.07 122.00 467.85 C 122.00 462.61 125.07 457.80 130.04 455.25 C 134.08 453.17 135.75 453.00 151.63 453.00 L 168.83 453.00 L 173.75 438.25 L 178.67 423.50 L 257.00 423.50 L 335.33 423.50 L 340.25 438.25 L 345.17 453.00 L 362.37 453.00 C 378.25 453.00 379.92 453.17 383.96 455.25 C 391.58 459.15 394.09 467.50 389.91 474.95 C 385.61 482.59 396.80 482.00 256.85 481.97 C 141.97 481.95 131.28 481.81 128.83 480.29Z"/></g>
</svg>
