<?xml version="1.0" encoding="UTF-8"?>
<svg version="1.1" xmlns="http://www.w3.org/2000/svg" width="512" height="512" viewBox="0 0 512 512">
<path d="M0 0 C11.63 4.85 16.44 26.22 20.97 36.96 C23.5 42.95 26.03 48.93 28.57 54.91 C28.96 55.83 28.96 55.83 29.36 56.77 C33.38 66.23 37.45 75.67 41.55 85.09 C41.82 85.7 42.08 86.31 42.36 86.94 C45.17 93.39 47.99 99.83 50.81 106.28 C51.74 108.39 52.66 110.51 53.58 112.62 C54 113.57 54.42 114.52 54.85 115.51 C55.43 116.84 55.43 116.84 56.03 118.2 C56.36 118.96 56.7 119.72 57.04 120.51 C58.24 123.62 59.12 126.79 60 130 C60.68 130.05 61.37 130.1 62.07 130.15 C78.99 131.36 95.9 132.73 112.8 134.28 C113.94 134.38 115.09 134.49 116.27 134.59 C122.3 135.15 128.34 135.7 134.37 136.26 C139.32 136.72 144.28 137.17 149.24 137.61 C155.3 138.15 161.35 138.71 167.4 139.27 C169.69 139.48 171.98 139.69 174.27 139.89 C177.45 140.17 180.63 140.47 183.81 140.77 C185.21 140.89 185.21 140.89 186.64 141.01 C191.99 141.54 196.24 142.45 201 145 C203.74 148.98 204.7 152.21 204 157 C200.02 165.14 191.65 170.69 184.75 176.25 C179.68 180.35 174.94 184.73 170.19 189.2 C165.88 193.24 161.4 196.99 156.79 200.68 C152.36 204.36 148.19 208.3 143.98 212.23 C139.37 216.53 134.59 220.64 129.79 224.74 C128.59 225.76 127.39 226.79 126.19 227.81 C125.28 228.59 125.28 228.59 124.36 229.37 C119.62 233.43 114.99 237.58 110.43 241.83 C108.28 243.75 106.08 245.38 103.75 247.06 C102.18 248.32 102.18 248.32 101 250 C100.81 251.96 100.81 251.96 101.2 254.08 C101.32 254.88 101.43 255.68 101.55 256.5 C102.28 260.59 103.13 264.63 104.05 268.67 C104.36 270.05 104.36 270.05 104.68 271.46 C105.36 274.49 106.05 277.52 106.73 280.54 C107.21 282.67 107.69 284.81 108.17 286.94 C109.44 292.55 110.71 298.16 111.98 303.76 C113.25 309.4 114.52 315.03 115.79 320.67 C117.45 328.03 119.11 335.39 120.77 342.75 C121.21 344.66 121.64 346.58 122.07 348.5 C123.16 353.35 124.28 358.19 125.44 363.02 C125.67 364.01 125.91 364.99 126.15 366.01 C126.59 367.86 127.03 369.72 127.49 371.57 C130.69 385.17 130.69 385.17 127.25 390.94 C124.67 393.3 122.57 394.84 119.04 395.21 C111.83 394.6 106.75 391.33 100.75 387.5 C98.53 386.13 96.32 384.76 94.1 383.39 C93.52 383.03 92.95 382.67 92.36 382.3 C86.32 378.55 80.19 374.97 74.05 371.4 C70.96 369.6 67.87 367.79 64.78 365.98 C64.19 365.63 63.6 365.29 62.99 364.93 C57.27 361.58 51.59 358.18 45.91 354.75 C40.6 351.55 35.27 348.38 29.94 345.21 C28.87 344.58 28.87 344.58 27.78 343.93 C24.21 341.82 20.64 339.7 17.06 337.58 C16.4 337.19 15.73 336.79 15.04 336.39 C13.75 335.62 12.45 334.86 11.16 334.09 C7.8 332.11 4.56 330.03 1.36 327.81 C-1.75 325.63 -1.75 325.63 -4.34 326.68 C-7.28 328.14 -10.12 329.72 -12.95 331.39 C-13.52 331.72 -14.09 332.05 -14.68 332.4 C-16.54 333.49 -18.39 334.59 -20.25 335.69 C-21.56 336.46 -22.87 337.23 -24.18 338 C-33.33 343.39 -42.44 348.85 -51.53 354.33 C-60.2 359.54 -68.93 364.67 -77.67 369.77 C-85.52 374.36 -93.34 378.99 -101.12 383.69 C-104.08 385.46 -107.04 387.23 -110 389 C-110.89 389.54 -110.89 389.54 -111.8 390.08 C-113.32 390.99 -114.85 391.87 -116.38 392.75 C-117.53 393.42 -117.53 393.42 -118.71 394.11 C-121.64 395.25 -123.89 395.27 -127 395 C-130.66 392.96 -132.67 391.5 -135 388 C-135.54 380.55 -134.12 373.9 -132.43 366.67 C-132.16 365.47 -131.88 364.27 -131.6 363.03 C-131.01 360.43 -130.42 357.83 -129.81 355.24 C-128.86 351.13 -127.93 347.02 -126.99 342.91 C-125.51 336.4 -124.02 329.91 -122.53 323.41 C-119.85 311.76 -117.19 300.11 -114.53 288.46 C-113.6 284.38 -112.66 280.3 -111.72 276.21 C-111 273.08 -110.29 269.94 -109.57 266.81 C-109.31 265.68 -109.05 264.55 -108.78 263.39 C-108.54 262.35 -108.31 261.32 -108.06 260.25 C-107.86 259.35 -107.65 258.45 -107.44 257.53 C-106.98 254.91 -106.75 252.65 -107 250 C-108.89 247.85 -110.66 246.1 -112.81 244.25 C-113.4 243.72 -114 243.2 -114.61 242.65 C-119 238.77 -123.55 235.08 -128.12 231.41 C-132.16 228.03 -135.97 224.41 -139.81 220.8 C-144.12 216.76 -148.6 213.01 -153.21 209.32 C-157.64 205.64 -161.81 201.7 -166.02 197.77 C-170.63 193.47 -175.41 189.36 -180.21 185.26 C-181.41 184.24 -182.61 183.21 -183.81 182.19 C-184.42 181.67 -185.02 181.16 -185.64 180.63 C-190.4 176.55 -195.04 172.37 -199.65 168.12 C-201.58 166.38 -203.53 164.74 -205.56 163.12 C-208.46 160.6 -209.88 158.71 -210.15 154.82 C-210.08 154.07 -210.01 153.33 -209.94 152.56 C-209.88 151.82 -209.83 151.08 -209.78 150.32 C-208.64 146.93 -206.68 145.32 -204 143 C-201.41 142.17 -201.41 142.17 -198.39 141.85 C-196.52 141.64 -196.52 141.64 -194.62 141.43 C-193.08 141.29 -191.54 141.14 -190 141 C-188.06 140.81 -186.12 140.61 -184.18 140.41 C-177.05 139.71 -169.91 139.05 -162.78 138.4 C-160.14 138.15 -157.51 137.91 -154.87 137.67 C-149.37 137.16 -143.87 136.65 -138.38 136.15 C-132.03 135.57 -125.68 134.98 -119.34 134.39 C-113.2 133.83 -107.07 133.26 -100.94 132.7 C-98.34 132.46 -95.74 132.22 -93.14 131.98 C-89.52 131.64 -85.89 131.31 -82.27 130.98 C-81.2 130.88 -80.12 130.78 -79.02 130.68 C-78.03 130.59 -77.04 130.5 -76.02 130.4 C-74.74 130.29 -74.74 130.29 -73.43 130.17 C-70.95 130 -68.49 129.97 -66 130 C-65.83 129.45 -65.65 128.9 -65.47 128.33 C-63.71 122.91 -61.69 117.68 -59.39 112.46 C-59.04 111.65 -58.69 110.84 -58.33 110 C-57.56 108.24 -56.79 106.48 -56.02 104.71 C-53.91 99.86 -51.8 95 -49.69 90.14 C-49.24 89.1 -48.79 88.06 -48.33 86.99 C-44.75 78.74 -41.19 70.48 -37.65 62.21 C-37.39 61.58 -37.12 60.96 -36.84 60.32 C-34.46 54.76 -32.08 49.2 -29.7 43.63 C-29.2 42.46 -28.7 41.29 -28.19 40.09 C-27.45 38.38 -27.45 38.38 -26.71 36.63 C-25.31 33.37 -23.91 30.11 -22.5 26.85 C-20.95 23.23 -19.42 19.6 -17.92 15.95 C-17.61 15.21 -17.3 14.46 -16.98 13.69 C-16.18 11.79 -15.4 9.88 -14.62 7.97 C-11.3 1.9 -6.79 -0.65 0 0 Z " fill="#FFDB63" transform="translate(259,15)"/>
<path d="M0 0 C10.24 4.27 14.34 21 18.49 30.67 C19.13 32.16 19.77 33.63 20.42 35.11 C21.38 37.27 22.31 39.44 23.25 41.62 C23.54 42.27 23.83 42.92 24.13 43.6 C25.9 47.81 26.28 50.6 25 55 C23.45 57.56 21.86 59.95 20.12 62.38 C6.31 82.42 -5.74 103.78 -16.72 125.49 C-17.93 127.87 -19.18 130.23 -20.46 132.58 C-40.36 169.39 -56.03 208.5 -69.36 248.12 C-69.97 249.9 -70.58 251.68 -71.19 253.46 C-81.29 282.97 -89.27 313.33 -95.5 343.88 C-95.67 344.68 -95.83 345.49 -96.01 346.33 C-97.57 353.94 -99.02 361.49 -99.85 369.22 C-101.51 384.18 -101.51 384.18 -106.26 388.34 C-112.31 392.64 -119.55 395.59 -127 395 C-130.85 393.04 -132.61 391.59 -135 388 C-135.54 380.55 -134.12 373.9 -132.43 366.67 C-132.16 365.47 -131.88 364.27 -131.6 363.03 C-131.01 360.43 -130.42 357.83 -129.81 355.24 C-128.86 351.13 -127.93 347.02 -126.99 342.91 C-125.51 336.4 -124.02 329.91 -122.53 323.41 C-119.85 311.76 -117.19 300.11 -114.53 288.46 C-113.6 284.38 -112.66 280.3 -111.72 276.21 C-111 273.08 -110.29 269.94 -109.57 266.81 C-109.31 265.68 -109.05 264.55 -108.78 263.39 C-108.54 262.35 -108.31 261.32 -108.06 260.25 C-107.86 259.35 -107.65 258.45 -107.44 257.53 C-106.98 254.91 -106.75 252.65 -107 250 C-108.89 247.85 -110.66 246.1 -112.81 244.25 C-113.4 243.72 -114 243.2 -114.61 242.65 C-119 238.77 -123.55 235.08 -128.12 231.41 C-132.16 228.03 -135.97 224.41 -139.81 220.8 C-144.12 216.76 -148.6 213.01 -153.21 209.32 C-157.64 205.64 -161.81 201.7 -166.02 197.77 C-170.63 193.47 -175.41 189.36 -180.21 185.26 C-181.41 184.24 -182.61 183.21 -183.81 182.19 C-184.42 181.67 -185.02 181.16 -185.64 180.63 C-190.4 176.55 -195.04 172.37 -199.65 168.12 C-201.58 166.38 -203.53 164.74 -205.56 163.12 C-208.46 160.6 -209.88 158.71 -210.15 154.82 C-210.08 154.07 -210.01 153.33 -209.94 152.56 C-209.88 151.82 -209.83 151.08 -209.78 150.32 C-208.64 146.93 -206.68 145.32 -204 143 C-201.41 142.17 -201.41 142.17 -198.39 141.85 C-196.52 141.64 -196.52 141.64 -194.62 141.43 C-193.08 141.29 -191.54 141.14 -190 141 C-188.06 140.81 -186.12 140.61 -184.18 140.41 C-177.05 139.71 -169.91 139.05 -162.78 138.4 C-160.14 138.15 -157.51 137.91 -154.87 137.67 C-149.37 137.16 -143.87 136.65 -138.38 136.15 C-132.03 135.57 -125.68 134.98 -119.34 134.39 C-113.2 133.83 -107.07 133.26 -100.94 132.7 C-98.34 132.46 -95.74 132.22 -93.14 131.98 C-89.52 131.64 -85.89 131.31 -82.27 130.98 C-81.2 130.88 -80.12 130.78 -79.02 130.68 C-78.03 130.59 -77.04 130.5 -76.02 130.4 C-74.74 130.29 -74.74 130.29 -73.43 130.17 C-70.95 130 -68.49 129.97 -66 130 C-65.83 129.45 -65.65 128.9 -65.47 128.33 C-63.71 122.91 -61.69 117.68 -59.39 112.46 C-59.04 111.65 -58.69 110.84 -58.33 110 C-57.56 108.24 -56.79 106.48 -56.02 104.71 C-53.91 99.86 -51.8 95 -49.69 90.14 C-49.24 89.1 -48.79 88.06 -48.33 86.99 C-44.75 78.74 -41.19 70.48 -37.65 62.21 C-37.39 61.58 -37.12 60.96 -36.84 60.32 C-34.46 54.76 -32.08 49.2 -29.7 43.63 C-29.2 42.46 -28.7 41.29 -28.19 40.09 C-27.45 38.38 -27.45 38.38 -26.71 36.63 C-25.31 33.37 -23.91 30.11 -22.5 26.85 C-20.95 23.23 -19.42 19.6 -17.92 15.95 C-17.61 15.21 -17.3 14.46 -16.98 13.69 C-16.18 11.79 -15.4 9.88 -14.62 7.97 C-11.3 1.9 -6.79 -0.65 0 0 Z " fill="#FFC850" transform="translate(259,15)"/>
<path d="M0 0 C0.69 2.31 0.69 2.31 1 5 C-1.2 7.82 -4.02 9.24 -7.14 10.9 C-8.18 11.45 -9.22 12.01 -10.29 12.58 C-11.41 13.17 -12.53 13.77 -13.69 14.38 C-15.46 15.32 -17.22 16.26 -18.99 17.2 C-20.2 17.84 -21.41 18.49 -22.62 19.13 C-26.56 21.22 -30.48 23.35 -34.39 25.5 C-43.68 30.6 -52.99 35.62 -62.56 40.19 C-63.32 40.55 -64.07 40.91 -64.85 41.29 C-72.3 44.77 -78.82 47.03 -87 45 C-91.28 42.9 -94.1 40.43 -96.3 36.12 C-97.93 31.17 -97.93 25.83 -96.3 20.88 C-93.83 16.05 -90.1 13.02 -84.96 11.33 C-82.38 10.69 -79.8 10.17 -77.19 9.69 C-76.16 9.49 -75.14 9.29 -74.08 9.08 C-54.63 5.47 -34.94 3 -15.34 0.33 C-13.24 0.03 -11.15 -0.29 -9.06 -0.62 C-5.79 -1.03 -3.2 -0.7 0 0 Z " fill="#FFF082" transform="translate(97,283)"/>
<path d="M0 0 C1.25 0.15 1.25 0.15 2.53 0.31 C5.29 0.65 8.05 1.02 10.82 1.4 C11.76 1.52 12.71 1.65 13.68 1.78 C19.72 2.59 25.74 3.44 31.77 4.32 C34.88 4.77 37.99 5.22 41.1 5.66 C50.4 6.99 59.67 8.42 68.88 10.31 C69.58 10.45 70.29 10.58 71.02 10.72 C77.24 12.08 81.99 14.92 85.75 20.02 C87.64 26.03 88.15 32.59 85.19 38.34 C81.66 42.89 78.31 45.36 72.63 46.4 C63.04 46.95 53.4 40.97 45 36.9 C43.92 36.38 42.84 35.85 41.72 35.31 C31.81 30.48 22.14 25.26 12.52 19.88 C9.71 18.34 6.88 16.85 4.04 15.38 C3.11 14.89 2.18 14.4 1.22 13.89 C-0.55 12.96 -2.32 12.04 -4.1 11.14 C-9.87 8.07 -9.87 8.07 -11.41 4.77 C-11.18 2.4 -11.18 2.4 -10.18 0.71 C-6.95 -1.41 -3.65 -0.5 0 0 Z " fill="#FFF082" transform="translate(425.18359375,282.6015625)"/>
<path d="M0 0 C4.11 5.22 4.46 9.49 4.53 16.04 C3.45 22.09 -1.16 26.52 -5.27 30.88 C-5.78 31.44 -6.3 31.99 -6.83 32.56 C-12.99 39.12 -19.34 45.49 -25.71 51.84 C-27.77 53.89 -29.81 55.94 -31.86 58 C-33.19 59.33 -34.53 60.66 -35.86 61.99 C-36.46 62.59 -37.06 63.19 -37.67 63.81 C-41.96 68.07 -46.42 72.07 -51 76 C-51.84 76.73 -52.67 77.46 -53.53 78.21 C-55.35 79.81 -57.18 81.4 -59 83 C-60.65 82.34 -62.3 81.68 -64 81 C-63.59 73.86 -60.54 68.07 -57.5 61.69 C-56.93 60.47 -56.35 59.26 -55.78 58.04 C-51.01 47.95 -46.08 37.94 -41.12 27.94 C-40.77 27.22 -40.42 26.5 -40.05 25.76 C-27.26 -0.13 -27.26 -0.13 -19.04 -3.9 C-12.17 -5.66 -5.63 -4.53 0 0 Z " fill="#FFF082" transform="translate(419,15)"/>
<path d="M0 0 C2.55 2.67 4.18 5.71 5.89 8.96 C6.3 9.72 6.71 10.48 7.14 11.27 C16.39 28.61 25.04 46.29 33.39 64.08 C33.9 65.16 34.41 66.24 34.94 67.36 C35.41 68.36 35.87 69.36 36.35 70.4 C36.76 71.27 37.17 72.14 37.58 73.04 C38.51 75.69 38.62 77.73 38.45 80.52 C36.8 81.18 35.15 81.84 33.45 82.52 C20.07 70.91 7.4 58.58 -5.15 46.09 C-6.49 44.76 -7.83 43.43 -9.17 42.11 C-29.65 21.82 -29.65 21.82 -29.86 12.83 C-29.79 7.05 -29.21 4.01 -25.55 -0.48 C-17.3 -6.86 -7.89 -6.96 0 0 Z " fill="#FFF082" transform="translate(118.551513671875,15.482421875)"/>
<path d="M0 0 C0.76 0.23 1.53 0.45 2.31 0.69 C5.22 12.17 7.22 23.81 9.27 35.47 C9.87 38.85 10.48 42.23 11.08 45.61 C12.81 55.29 14.49 64.97 15.65 74.74 C15.74 75.42 15.83 76.11 15.92 76.81 C16.61 83.22 16.58 89.33 13.5 95.06 C9.71 99.61 6.54 101.39 0.75 102.53 C-4.85 102.9 -9.23 100.83 -13.56 97.44 C-19.78 89.39 -18.76 82.35 -17.69 72.69 C-16.78 65.74 -15.6 58.84 -14.44 51.94 C-14.12 50.03 -13.8 48.13 -13.49 46.23 C-12.71 41.56 -11.92 36.91 -11.12 32.25 C-10.72 29.87 -10.32 27.49 -9.92 25.12 C-9.28 21.3 -8.61 17.49 -7.94 13.69 C-7.75 12.59 -7.57 11.5 -7.37 10.37 C-7.19 9.38 -7.01 8.39 -6.83 7.38 C-6.68 6.53 -6.53 5.69 -6.38 4.82 C-5.17 1.09 -4.05 -0.47 0 0 Z " fill="#FFF082" transform="translate(257.6875,399.3125)"/>
</svg>
