<svg xmlns="http://www.w3.org/2000/svg" viewBox="0 0 24 24" fill="#25D366">
  <path d="M12.04 2C6.58 2 2.15 6.3 2.15 11.6c0 2.05.66 3.95 1.79 5.5L2 22l5.12-1.65A10.1 10.1 0 0 0 12.04 21.2c5.46 0 9.89-4.3 9.89-9.6S17.5 2 12.04 2zm5.77 13.6c-.24.67-1.4 1.24-1.94 1.32-.5.07-1.13.1-1.82-.11-.42-.13-.96-.31-1.65-.61-2.9-1.26-4.79-4.2-4.93-4.39-.14-.2-1.16-1.54-1.16-2.94 0-1.4.73-2.09.99-2.38.26-.29.57-.36.76-.36h.55c.18 0 .42-.07.65.5.24.58.8 2 .87 2.14.07.14.12.31.02.5-.1.2-.15.32-.3.49-.14.17-.3.38-.43.51-.14.14-.29.29-.12.56.16.28.73 1.2 1.56 1.95 1.08.96 1.98 1.26 2.26 1.4.28.14.44.12.6-.07.17-.2.7-.81.89-1.09.19-.28.38-.23.64-.14.26.1 1.66.78 1.95.93.28.14.47.21.54.33.07.12.07.69-.17 1.36z"/>
</svg>
