<?xml version="1.0" encoding="UTF-8"?>
<svg version="1.1" xmlns="http://www.w3.org/2000/svg" width="512" height="512" viewBox="0 0 512 512">
<path d="M0 0 C1 -0.01 1.99 -0.01 3.02 -0.02 C6.33 -0.03 9.65 -0.02 12.96 -0.02 C15.34 -0.02 17.73 -0.03 20.12 -0.04 C25.91 -0.05 31.7 -0.06 37.49 -0.05 C42.21 -0.05 46.92 -0.05 51.63 -0.05 C52.3 -0.05 52.97 -0.05 53.67 -0.05 C55.03 -0.06 56.4 -0.06 57.77 -0.06 C70.56 -0.07 83.35 -0.07 96.14 -0.06 C107.83 -0.05 119.51 -0.06 131.19 -0.08 C143.21 -0.11 155.23 -0.12 167.25 -0.11 C173.99 -0.11 180.73 -0.11 187.46 -0.13 C193.8 -0.14 200.14 -0.14 206.48 -0.12 C208.8 -0.12 211.12 -0.12 213.44 -0.13 C232.1 -0.21 245.15 1.51 259.37 14.7 C268.51 24.37 272.09 35.68 272 48.77 C272.01 50.27 272.01 50.27 272.02 51.79 C272.03 55.11 272.03 58.42 272.02 61.73 C272.02 64.12 272.03 66.5 272.04 68.89 C272.06 74.68 272.06 80.47 272.05 86.27 C272.05 90.98 272.05 95.69 272.06 100.4 C272.06 101.07 272.06 101.75 272.06 102.44 C272.06 103.81 272.06 105.17 272.06 106.54 C272.08 119.33 272.07 132.12 272.06 144.92 C272.05 156.6 272.06 168.28 272.09 179.96 C272.11 191.98 272.12 204 272.11 216.02 C272.11 222.76 272.11 229.5 272.13 236.24 C272.15 242.58 272.14 248.91 272.12 255.25 C272.12 257.57 272.12 259.89 272.13 262.21 C272.21 280.87 270.49 293.93 257.3 308.14 C246.45 318.41 234.47 320.87 219.95 320.68 C218.04 320.67 218.04 320.67 216.09 320.67 C212.74 320.65 209.39 320.63 206.04 320.59 C202.61 320.56 199.18 320.55 195.74 320.53 C189.03 320.5 182.32 320.45 175.62 320.39 C175.62 321.09 175.63 321.79 175.64 322.51 C175.72 329.16 175.78 335.8 175.82 342.45 C175.84 345.87 175.87 349.29 175.92 352.7 C175.97 356.64 175.99 360.59 176.01 364.53 C176.03 365.74 176.05 366.94 176.07 368.19 C176.07 382.73 171.12 393.56 161.3 404.14 C151.64 413.29 140.32 416.86 127.23 416.78 C126.23 416.78 125.24 416.79 124.21 416.79 C120.9 416.81 117.58 416.8 114.27 416.79 C111.89 416.8 109.5 416.8 107.11 416.81 C101.32 416.83 95.53 416.83 89.74 416.83 C85.02 416.82 80.31 416.82 75.6 416.83 C74.93 416.83 74.26 416.83 73.56 416.83 C72.2 416.83 70.83 416.83 69.46 416.83 C56.67 416.85 43.88 416.84 31.09 416.83 C19.4 416.82 7.72 416.83 -3.96 416.86 C-15.98 416.88 -28 416.89 -40.02 416.89 C-46.76 416.88 -53.5 416.88 -60.23 416.9 C-66.57 416.92 -72.91 416.91 -79.25 416.89 C-81.57 416.89 -83.89 416.89 -86.21 416.9 C-104.87 416.98 -117.92 415.26 -132.13 402.08 C-141.28 392.41 -144.86 381.09 -144.77 368 C-144.78 367.01 -144.78 366.01 -144.79 364.98 C-144.8 361.67 -144.8 358.36 -144.79 355.04 C-144.79 352.66 -144.8 350.27 -144.81 347.89 C-144.83 342.09 -144.83 336.3 -144.82 330.51 C-144.82 325.8 -144.82 321.09 -144.83 316.37 C-144.83 315.7 -144.83 315.03 -144.83 314.34 C-144.83 312.97 -144.83 311.6 -144.83 310.24 C-144.85 297.45 -144.84 284.65 -144.83 271.86 C-144.82 260.18 -144.83 248.49 -144.86 236.81 C-144.88 224.79 -144.89 212.77 -144.88 200.75 C-144.88 194.02 -144.88 187.28 -144.9 180.54 C-144.92 174.2 -144.91 167.86 -144.89 161.52 C-144.89 159.2 -144.89 156.88 -144.9 154.56 C-144.98 135.91 -143.26 122.85 -130.07 108.64 C-119.22 98.36 -107.24 95.91 -92.72 96.09 C-91.45 96.1 -90.17 96.1 -88.86 96.11 C-85.51 96.12 -82.16 96.15 -78.81 96.18 C-75.38 96.21 -71.95 96.23 -68.51 96.24 C-61.8 96.27 -55.09 96.32 -48.38 96.39 C-48.39 95.69 -48.4 94.99 -48.41 94.27 C-48.49 87.62 -48.55 80.97 -48.59 74.32 C-48.61 70.91 -48.64 67.49 -48.69 64.07 C-48.74 60.13 -48.76 56.19 -48.78 52.25 C-48.8 51.04 -48.82 49.83 -48.84 48.59 C-48.84 34.05 -43.89 23.22 -34.07 12.64 C-24.41 3.49 -13.09 -0.09 0 0 Z M-12.32 38.14 C-16.72 45.07 -16.66 51.58 -16.58 59.57 C-16.58 60.63 -16.57 61.68 -16.57 62.77 C-16.56 66.12 -16.54 69.47 -16.51 72.83 C-16.5 75.11 -16.49 77.39 -16.48 79.67 C-16.46 85.24 -16.43 90.81 -16.38 96.39 C-15.21 96.39 -15.21 96.39 -14.01 96.39 C5.07 96.43 24.15 96.49 43.23 96.57 C52.46 96.61 61.69 96.64 70.91 96.66 C78.96 96.67 87.01 96.7 95.05 96.74 C99.31 96.76 103.57 96.78 107.83 96.78 C111.84 96.78 115.86 96.8 119.87 96.83 C121.34 96.84 122.8 96.84 124.27 96.83 C139.22 96.78 150.84 100.09 161.84 110.49 C169.9 119.02 174.84 129.21 174.89 141.08 C174.9 142.38 174.92 143.69 174.93 145.03 C174.93 146.46 174.93 147.89 174.93 149.32 C174.94 150.84 174.95 152.36 174.96 153.87 C174.99 157.98 175.01 162.09 175.02 166.19 C175.04 170.49 175.06 174.79 175.09 179.09 C175.13 187.22 175.17 195.35 175.2 203.48 C175.24 212.74 175.29 222 175.34 231.26 C175.45 250.3 175.53 269.35 175.62 288.39 C182.29 288.46 188.96 288.52 195.63 288.55 C197.9 288.57 200.16 288.59 202.43 288.61 C205.7 288.65 208.97 288.67 212.24 288.68 C213.24 288.7 214.24 288.71 215.28 288.73 C221.83 288.73 228.88 288.39 234.2 284.11 C239.7 278.1 239.91 270.79 239.88 263.1 C239.88 262.19 239.88 261.27 239.89 260.33 C239.9 257.28 239.89 254.23 239.89 251.17 C239.89 248.98 239.9 246.79 239.91 244.59 C239.92 238.64 239.92 232.69 239.92 226.74 C239.92 221.77 239.92 216.8 239.93 211.83 C239.94 199.43 239.94 187.04 239.93 174.64 C239.92 163.89 239.94 153.13 239.95 142.38 C239.97 131.32 239.98 120.27 239.98 109.21 C239.98 103.01 239.98 96.81 239.99 90.61 C240.01 84.78 240 78.94 239.99 73.11 C239.99 70.97 239.99 68.84 240 66.7 C240.01 63.77 240 60.85 239.99 57.93 C240 57.09 240 56.25 240.01 55.38 C239.96 49.31 239.25 42.69 235.34 37.79 C229.31 32.31 222.02 32.09 214.33 32.13 C213.42 32.12 212.5 32.12 211.56 32.12 C208.51 32.11 205.45 32.11 202.4 32.11 C200.21 32.11 198.01 32.1 195.82 32.1 C189.87 32.08 183.92 32.08 177.97 32.09 C173 32.09 168.03 32.08 163.06 32.08 C150.66 32.07 138.26 32.07 125.87 32.07 C115.11 32.08 104.36 32.07 93.61 32.05 C82.55 32.03 71.5 32.02 60.44 32.02 C54.24 32.03 48.04 32.02 41.84 32.01 C36 32 30.17 32 24.34 32.01 C22.2 32.01 20.06 32.01 17.93 32 C15 31.99 12.08 32 9.15 32.01 C8.31 32.01 7.47 32 6.61 31.99 C-0.14 32.05 -7.56 32.9 -12.32 38.14 Z M-108.32 134.14 C-112.3 140.41 -112.68 146.47 -112.65 153.67 C-112.65 154.59 -112.65 155.5 -112.66 156.44 C-112.67 159.5 -112.66 162.55 -112.66 165.6 C-112.66 167.8 -112.67 169.99 -112.68 172.18 C-112.69 178.13 -112.69 184.08 -112.69 190.03 C-112.69 195 -112.69 199.97 -112.7 204.94 C-112.71 217.34 -112.71 229.74 -112.7 242.14 C-112.69 252.89 -112.71 263.64 -112.72 274.4 C-112.74 285.45 -112.75 296.51 -112.75 307.56 C-112.75 313.76 -112.75 319.96 -112.76 326.17 C-112.78 332 -112.77 337.83 -112.76 343.66 C-112.76 345.8 -112.76 347.94 -112.77 350.08 C-112.78 353 -112.77 355.92 -112.76 358.85 C-112.77 359.69 -112.77 360.53 -112.78 361.4 C-112.73 367.46 -112.02 374.09 -108.11 378.98 C-102.08 384.47 -94.79 384.68 -87.1 384.65 C-86.19 384.65 -85.27 384.66 -84.33 384.66 C-81.28 384.67 -78.22 384.67 -75.17 384.66 C-72.98 384.67 -70.78 384.67 -68.59 384.68 C-62.64 384.69 -56.69 384.69 -50.74 384.69 C-45.77 384.69 -40.8 384.69 -35.83 384.7 C-23.43 384.71 -11.03 384.71 1.36 384.7 C12.12 384.7 22.87 384.71 33.62 384.73 C44.68 384.75 55.73 384.75 66.79 384.75 C72.99 384.75 79.19 384.75 85.39 384.77 C91.23 384.78 97.06 384.78 102.89 384.76 C105.03 384.76 107.17 384.76 109.3 384.77 C112.23 384.78 115.15 384.77 118.08 384.76 C118.92 384.77 119.76 384.78 120.62 384.78 C126.69 384.73 133.31 384.03 138.21 380.11 C143.7 374.08 143.91 366.79 143.88 359.1 C143.88 358.19 143.88 357.27 143.89 356.33 C143.9 353.28 143.89 350.23 143.89 347.17 C143.89 344.98 143.9 342.79 143.91 340.59 C143.92 334.64 143.92 328.69 143.92 322.74 C143.92 317.77 143.92 312.8 143.93 307.83 C143.94 295.43 143.94 283.04 143.93 270.64 C143.92 259.89 143.94 249.13 143.95 238.38 C143.97 227.32 143.98 216.27 143.98 205.21 C143.98 199.01 143.98 192.81 143.99 186.61 C144.01 180.78 144 174.94 143.99 169.11 C143.99 166.97 143.99 164.84 144 162.7 C144.01 159.77 144 156.85 143.99 153.93 C144 153.09 144 152.25 144.01 151.38 C143.96 145.31 143.25 138.69 139.34 133.79 C133.31 128.31 126.02 128.09 118.33 128.13 C117.42 128.12 116.5 128.12 115.56 128.12 C112.51 128.11 109.45 128.11 106.4 128.11 C104.21 128.11 102.01 128.1 99.82 128.1 C93.87 128.08 87.92 128.08 81.97 128.09 C77 128.09 72.03 128.08 67.06 128.08 C54.66 128.07 42.26 128.07 29.87 128.07 C19.11 128.08 8.36 128.07 -2.39 128.05 C-13.45 128.03 -24.5 128.02 -35.56 128.02 C-41.76 128.03 -47.96 128.02 -54.16 128.01 C-60 128 -65.83 128 -71.66 128.01 C-73.8 128.01 -75.94 128.01 -78.07 128 C-81 127.99 -83.92 128 -86.85 128.01 C-87.69 128.01 -88.53 128 -89.39 127.99 C-96.14 128.05 -103.56 128.9 -108.32 134.14 Z " fill="#000000" transform="translate(192.38497924804688,47.61231994628906)"/>
<path d="M0 0 C4.52 3.53 6.71 6.52 7.5 12.12 C7.79 18.99 6.25 22.91 1.72 28.03 C0.06 29.76 -1.62 31.46 -3.32 33.15 C-3.96 33.79 -4.6 34.43 -5.26 35.09 C-7.35 37.19 -9.46 39.29 -11.56 41.39 C-13.03 42.86 -14.49 44.32 -15.96 45.79 C-19.02 48.86 -22.09 51.92 -25.16 54.98 C-29.09 58.9 -33.02 62.83 -36.94 66.77 C-39.96 69.79 -42.98 72.82 -46.01 75.84 C-47.46 77.29 -48.9 78.74 -50.35 80.19 C-52.37 82.21 -54.4 84.23 -56.43 86.25 C-57.02 86.85 -57.62 87.45 -58.23 88.07 C-62.9 92.69 -65.99 94.73 -72.75 94.81 C-73.76 94.84 -74.77 94.87 -75.8 94.9 C-82.95 93.83 -87.94 87.68 -92.83 82.79 C-93.57 82.05 -94.31 81.31 -95.07 80.55 C-96.63 79 -98.19 77.44 -99.74 75.88 C-102.12 73.5 -104.51 71.13 -106.91 68.77 C-108.42 67.25 -109.94 65.74 -111.45 64.22 C-112.17 63.52 -112.88 62.81 -113.62 62.09 C-118.4 57.26 -121.14 53.56 -121.25 46.56 C-121.12 41.33 -120.1 38.57 -116.88 34.44 C-112.05 30.68 -108.45 29.99 -102.4 30 C-96.71 30.98 -92.86 34.08 -88.91 38.11 C-88.03 39 -87.15 39.89 -86.24 40.81 C-85.33 41.74 -84.43 42.67 -83.5 43.62 C-82.56 44.58 -81.63 45.53 -80.69 46.47 C-78.41 48.79 -76.14 51.11 -73.88 53.44 C-70.07 51.87 -67.69 49.48 -64.82 46.56 C-64.33 46.07 -63.84 45.57 -63.33 45.06 C-62.27 43.99 -61.22 42.92 -60.16 41.84 C-58.49 40.14 -56.81 38.44 -55.13 36.75 C-50.35 31.93 -45.58 27.1 -40.82 22.27 C-37.91 19.31 -34.98 16.36 -32.05 13.41 C-30.94 12.29 -29.83 11.16 -28.73 10.03 C-27.18 8.45 -25.62 6.88 -24.06 5.31 C-22.74 3.97 -22.74 3.97 -21.39 2.6 C-15.49 -2.48 -7.04 -3.53 0 0 Z " fill="#000000" transform="translate(264.875,257.5625)"/>
</svg>
